<?xml version="1.0" standalone="no"?>
<!DOCTYPE svg PUBLIC "-//W3C//DTD SVG 20010904//EN"
 "http://www.w3.org/TR/2001/REC-SVG-20010904/DTD/svg10.dtd">
<svg version="1.0" xmlns="http://www.w3.org/2000/svg"
 width="500.000000pt" height="500.000000pt" viewBox="0 0 500.000000 500.000000"
 preserveAspectRatio="xMidYMid meet">
<metadata>
Created by potrace 1.14, written by Peter Selinger 2001-2017
</metadata>
<g transform="translate(0.000000,500.000000) scale(0.100000,-0.100000)"
fill="#000000" stroke="none">
<path d="M290 4930 c-101 -13 -202 -89 -249 -189 l-26 -56 -2 -480 c-1 -283 3
-503 8 -535 14 -75 70 -188 118 -238 77 -79 135 -108 432 -213 156 -55 302
-107 324 -114 41 -13 320 -111 455 -160 41 -15 134 -47 205 -71 72 -24 139
-48 150 -53 11 -5 63 -23 115 -41 52 -18 104 -36 115 -40 11 -5 72 -26 135
-48 63 -22 246 -86 405 -142 160 -56 340 -119 400 -140 61 -21 306 -107 545
-191 239 -83 453 -158 475 -165 22 -7 99 -33 170 -59 166 -59 437 -153 495
-172 63 -20 181 -13 241 16 63 30 127 95 158 161 l26 55 0 420 -1 420 -28 90
c-56 185 -160 326 -316 430 -86 57 -109 66 -505 205 -151 52 -442 155 -545
191 -47 17 -103 36 -125 44 -22 7 -105 36 -185 65 -80 28 -201 71 -270 95 -69
24 -204 71 -300 105 -96 34 -186 65 -200 70 -14 4 -97 34 -185 65 -88 31 -288
101 -445 156 -157 55 -294 103 -305 108 -11 5 -54 21 -95 35 -41 13 -154 52
-250 86 -96 34 -224 79 -285 100 -60 21 -182 64 -270 95 -300 106 -301 106
-385 95z"/>
<path d="M1520 2095 c-79 -18 -175 -51 -680 -230 -52 -19 -187 -66 -300 -105
-113 -39 -233 -85 -268 -102 -117 -58 -215 -183 -246 -317 -21 -90 -21 -978 0
-1047 34 -115 126 -202 239 -227 68 -15 106 -13 175 7 53 16 243 82 275 96 11
5 47 17 80 28 61 20 350 122 590 207 72 25 168 59 215 75 47 16 380 133 740
260 360 127 662 233 670 235 8 2 78 27 155 54 77 27 217 76 310 109 331 117
321 113 339 142 31 54 14 119 -38 143 -17 8 -238 88 -491 177 -253 89 -516
182 -585 207 -69 24 -174 62 -235 83 -60 21 -195 68 -300 105 -288 102 -311
107 -460 110 -78 1 -152 -3 -185 -10z"/>
</g>
</svg>
