<svg xmlns="http://www.w3.org/2000/svg" width="375" viewBox="0 0 375 375" height="375" version="1.0"><path fill="#FFF" d="M-37.5 -37.5H412.5V412.5H-37.5z"/><path fill="#FFF" d="M-37.5 -37.5H412.5V412.5H-37.5z"/><path fill="#FFF" d="M-37.5 -37.5H412.5V412.5H-37.5z"/><path fill="#ffb923" d="M 341.445312 238.144531 C 342.363281 238.464844 343.292969 238.730469 344.242188 238.941406 C 345.191406 239.148438 346.148438 239.304688 347.113281 239.398438 C 348.078125 239.496094 349.046875 239.535156 350.019531 239.519531 C 350.988281 239.5 351.957031 239.421875 352.917969 239.289062 C 353.878906 239.15625 354.828125 238.96875 355.769531 238.722656 C 356.707031 238.476562 357.628906 238.175781 358.535156 237.820312 C 359.4375 237.464844 360.316406 237.058594 361.171875 236.597656 C 362.027344 236.140625 362.851562 235.632812 363.648438 235.074219 C 364.441406 234.515625 365.203125 233.914062 365.925781 233.265625 C 366.648438 232.617188 367.332031 231.929688 367.972656 231.203125 C 368.617188 230.472656 369.210938 229.707031 369.761719 228.910156 C 370.3125 228.109375 370.816406 227.28125 371.269531 226.421875 C 371.722656 225.5625 372.121094 224.679688 372.46875 223.773438 C 372.820312 222.867188 373.113281 221.941406 373.351562 221 C 373.589844 220.058594 373.769531 219.109375 373.894531 218.144531 C 374.023438 217.183594 374.089844 216.214844 374.101562 215.242188 L 374.101562 167.21875 C 374.101562 165.722656 374.042969 164.226562 373.925781 162.734375 C 373.8125 161.238281 373.636719 159.753906 373.410156 158.273438 C 373.179688 156.792969 372.890625 155.324219 372.546875 153.867188 C 372.203125 152.40625 371.804688 150.964844 371.351562 149.539062 C 370.894531 148.109375 370.386719 146.703125 369.824219 145.3125 C 369.261719 143.925781 368.644531 142.5625 367.976562 141.222656 C 367.308594 139.882812 366.589844 138.566406 365.820312 137.28125 C 365.050781 135.996094 364.234375 134.746094 363.367188 133.523438 C 362.5 132.300781 361.589844 131.113281 360.632812 129.960938 C 359.671875 128.808594 358.671875 127.695312 357.628906 126.621094 C 356.585938 125.546875 355.503906 124.515625 354.378906 123.523438 C 353.257812 122.53125 352.097656 121.585938 350.902344 120.683594 C 349.707031 119.78125 348.476562 118.929688 347.214844 118.121094 C 345.953125 117.316406 344.660156 116.558594 343.339844 115.851562 C 342.023438 115.144531 340.675781 114.488281 339.304688 113.882812 C 337.933594 113.28125 336.542969 112.730469 335.128906 112.234375 L 33.550781 6.28125 C 32.628906 5.957031 31.691406 5.691406 30.738281 5.480469 C 29.785156 5.269531 28.820312 5.117188 27.847656 5.019531 C 26.878906 4.925781 25.902344 4.886719 24.925781 4.90625 C 23.949219 4.929688 22.976562 5.007812 22.011719 5.144531 C 21.042969 5.28125 20.085938 5.472656 19.144531 5.726562 C 18.199219 5.976562 17.273438 6.28125 16.363281 6.644531 C 15.457031 7.003906 14.574219 7.417969 13.714844 7.886719 C 12.859375 8.351562 12.03125 8.867188 11.234375 9.433594 C 10.4375 10 9.675781 10.609375 8.953125 11.265625 C 8.230469 11.921875 7.546875 12.621094 6.90625 13.359375 C 6.265625 14.097656 5.671875 14.871094 5.125 15.679688 C 4.578125 16.488281 4.078125 17.324219 3.628906 18.195312 C 3.183594 19.0625 2.789062 19.953125 2.445312 20.871094 C 2.105469 21.785156 1.820312 22.71875 1.589844 23.667969 C 1.359375 24.617188 1.183594 25.578125 1.070312 26.546875 C 0.953125 27.515625 0.898438 28.492188 0.898438 29.46875 L 0.898438 93.140625 C 0.886719 95.003906 1.015625 96.863281 1.292969 98.707031 C 1.570312 100.554688 1.988281 102.367188 2.550781 104.144531 C 3.109375 105.925781 3.804688 107.652344 4.632812 109.324219 C 5.460938 110.996094 6.414062 112.59375 7.492188 114.117188 C 8.570312 115.640625 9.761719 117.070312 11.0625 118.40625 C 12.363281 119.746094 13.761719 120.972656 15.253906 122.09375 C 16.746094 123.210938 18.316406 124.210938 19.964844 125.085938 C 21.613281 125.957031 23.320312 126.699219 25.082031 127.308594 L 197.332031 187.894531 Z M 341.445312 238.144531"/><path fill="#ffb923" d="M 0.898438 346.320312 C 0.898438 347.296875 0.960938 348.269531 1.078125 349.238281 C 1.195312 350.203125 1.371094 351.164062 1.601562 352.109375 C 1.835938 353.058594 2.125 353.988281 2.464844 354.902344 C 2.808594 355.816406 3.207031 356.703125 3.65625 357.570312 C 4.105469 358.4375 4.601562 359.273438 5.152344 360.078125 C 5.703125 360.886719 6.296875 361.65625 6.9375 362.390625 C 7.578125 363.128906 8.261719 363.824219 8.984375 364.476562 C 9.707031 365.128906 10.46875 365.738281 11.261719 366.304688 C 12.058594 366.867188 12.886719 367.382812 13.742188 367.847656 C 14.601562 368.3125 15.484375 368.722656 16.390625 369.082031 C 17.296875 369.441406 18.222656 369.746094 19.164062 369.996094 C 20.109375 370.246094 21.0625 370.4375 22.027344 370.574219 C 22.992188 370.710938 23.964844 370.789062 24.941406 370.808594 C 25.914062 370.828125 26.886719 370.789062 27.859375 370.695312 C 28.828125 370.597656 29.789062 370.445312 30.742188 370.234375 C 31.695312 370.023438 32.632812 369.757812 33.550781 369.433594 L 282.378906 282.074219 C 283.105469 281.796875 283.777344 281.417969 284.386719 280.9375 C 285 280.457031 285.527344 279.894531 285.96875 279.253906 C 286.410156 278.613281 286.746094 277.921875 286.980469 277.179688 C 287.210938 276.433594 287.324219 275.675781 287.328125 274.894531 C 287.324219 274.117188 287.210938 273.355469 286.980469 272.613281 C 286.746094 271.871094 286.410156 271.175781 285.96875 270.535156 C 285.527344 269.894531 285 269.335938 284.386719 268.855469 C 283.777344 268.375 283.105469 267.996094 282.378906 267.71875 L 183.265625 232.757812 L 147.378906 220.195312 C 144.03125 219.019531 140.605469 218.132812 137.105469 217.539062 C 133.605469 216.941406 130.082031 216.644531 126.53125 216.644531 C 122.980469 216.644531 119.457031 216.941406 115.957031 217.539062 C 112.457031 218.132812 109.03125 219.019531 105.679688 220.195312 L 25.011719 248.480469 C 23.25 249.089844 21.546875 249.835938 19.902344 250.710938 C 18.257812 251.589844 16.691406 252.585938 15.203125 253.707031 C 13.714844 254.828125 12.320312 256.058594 11.023438 257.394531 C 9.726562 258.734375 8.539062 260.164062 7.464844 261.6875 C 6.390625 263.210938 5.4375 264.808594 4.613281 266.480469 C 3.785156 268.148438 3.09375 269.875 2.539062 271.652344 C 1.980469 273.433594 1.566406 275.242188 1.289062 277.085938 C 1.015625 278.929688 0.882812 280.785156 0.898438 282.648438 Z M 0.898438 346.320312"/></svg>
