<svg xmlns="http://www.w3.org/2000/svg" width="98" viewBox="0 0 73.5 73.5" height="98" version="1.0"><defs><clipPath id="a"><path d="M 0 0 L 73.003906 0 L 73.003906 73.003906 L 0 73.003906 Z M 0 0"/></clipPath><clipPath id="b"><path d="M 19.214844 30 L 30 30 L 30 40 L 19.214844 40 Z M 19.214844 30"/></clipPath><clipPath id="c"><path d="M 41 23.773438 L 45 23.773438 L 45 46 L 41 46 Z M 41 23.773438"/></clipPath><clipPath id="d"><path d="M 21 38 L 29 38 L 29 50.023438 L 21 50.023438 Z M 21 38"/></clipPath><clipPath id="e"><path d="M 47 33 L 54.464844 33 L 54.464844 35 L 47 35 Z M 47 33"/></clipPath></defs><g clip-path="url(#a)"><path fill="#FE5C96" d="M 22.5 0 L 51 0 C 51.738281 0 52.472656 0.0351562 53.207031 0.109375 C 53.9375 0.179688 54.667969 0.289062 55.390625 0.433594 C 56.113281 0.574219 56.828125 0.753906 57.53125 0.96875 C 58.238281 1.183594 58.929688 1.429688 59.609375 1.710938 C 60.292969 1.996094 60.957031 2.308594 61.605469 2.65625 C 62.257812 3.003906 62.886719 3.382812 63.5 3.792969 C 64.113281 4.203125 64.703125 4.640625 65.273438 5.105469 C 65.84375 5.574219 66.390625 6.070312 66.910156 6.589844 C 67.429688 7.109375 67.925781 7.65625 68.394531 8.226562 C 68.859375 8.796875 69.296875 9.386719 69.707031 10 C 70.117188 10.613281 70.496094 11.242188 70.84375 11.894531 C 71.191406 12.542969 71.503906 13.207031 71.789062 13.890625 C 72.070312 14.570312 72.316406 15.261719 72.53125 15.96875 C 72.746094 16.671875 72.925781 17.386719 73.066406 18.109375 C 73.210938 18.832031 73.320312 19.5625 73.390625 20.292969 C 73.464844 21.027344 73.5 21.761719 73.5 22.5 L 73.5 51 C 73.5 51.738281 73.464844 52.472656 73.390625 53.207031 C 73.320312 53.9375 73.210938 54.667969 73.066406 55.390625 C 72.925781 56.113281 72.746094 56.828125 72.53125 57.53125 C 72.316406 58.238281 72.070312 58.929688 71.789062 59.609375 C 71.503906 60.292969 71.191406 60.957031 70.84375 61.605469 C 70.496094 62.257812 70.117188 62.886719 69.707031 63.5 C 69.296875 64.113281 68.859375 64.703125 68.394531 65.273438 C 67.925781 65.84375 67.429688 66.390625 66.910156 66.910156 C 66.390625 67.429688 65.84375 67.925781 65.273438 68.394531 C 64.703125 68.859375 64.113281 69.296875 63.5 69.707031 C 62.886719 70.117188 62.257812 70.496094 61.605469 70.84375 C 60.957031 71.191406 60.292969 71.503906 59.609375 71.789062 C 58.929688 72.070312 58.238281 72.316406 57.53125 72.53125 C 56.828125 72.746094 56.113281 72.925781 55.390625 73.066406 C 54.667969 73.210938 53.9375 73.320312 53.207031 73.390625 C 52.472656 73.464844 51.738281 73.5 51 73.5 L 22.5 73.5 C 21.761719 73.5 21.027344 73.464844 20.292969 73.390625 C 19.5625 73.320312 18.832031 73.210938 18.109375 73.066406 C 17.386719 72.925781 16.671875 72.746094 15.96875 72.53125 C 15.261719 72.316406 14.570312 72.070312 13.890625 71.789062 C 13.207031 71.503906 12.542969 71.191406 11.894531 70.84375 C 11.242188 70.496094 10.613281 70.117188 10 69.707031 C 9.386719 69.296875 8.796875 68.859375 8.226562 68.394531 C 7.65625 67.925781 7.109375 67.429688 6.589844 66.910156 C 6.070312 66.390625 5.574219 65.84375 5.105469 65.273438 C 4.640625 64.703125 4.203125 64.113281 3.792969 63.5 C 3.382812 62.886719 3.003906 62.257812 2.65625 61.605469 C 2.308594 60.957031 1.996094 60.292969 1.710938 59.609375 C 1.429688 58.929688 1.183594 58.238281 0.96875 57.53125 C 0.753906 56.828125 0.574219 56.113281 0.433594 55.390625 C 0.289062 54.667969 0.179688 53.9375 0.109375 53.207031 C 0.0351562 52.472656 0 51.738281 0 51 L 0 22.5 C 0 21.761719 0.0351562 21.027344 0.109375 20.292969 C 0.179688 19.5625 0.289062 18.832031 0.433594 18.109375 C 0.574219 17.386719 0.753906 16.671875 0.96875 15.96875 C 1.183594 15.261719 1.429688 14.570312 1.710938 13.890625 C 1.996094 13.207031 2.308594 12.542969 2.65625 11.894531 C 3.003906 11.242188 3.382812 10.613281 3.792969 10 C 4.203125 9.386719 4.640625 8.796875 5.105469 8.226562 C 5.574219 7.65625 6.070312 7.109375 6.589844 6.589844 C 7.109375 6.070312 7.65625 5.574219 8.226562 5.105469 C 8.796875 4.640625 9.386719 4.203125 10 3.792969 C 10.613281 3.382812 11.242188 3.003906 11.894531 2.65625 C 12.542969 2.308594 13.207031 1.996094 13.890625 1.710938 C 14.570312 1.429688 15.261719 1.183594 15.96875 0.96875 C 16.671875 0.753906 17.386719 0.574219 18.109375 0.433594 C 18.832031 0.289062 19.5625 0.179688 20.292969 0.109375 C 21.027344 0.0351562 21.761719 0 22.5 0 Z M 22.5 0"/></g><path fill="#FE5C96" d="M 35.203125 26.773438 L 38.390625 26.773438 C 39.390625 26.773438 40.214844 27.558594 40.371094 28.582031 L 43.160156 28.582031 C 42.984375 26.023438 40.914062 24 38.390625 24 L 35.203125 24 C 32.679688 24 30.613281 26.023438 30.433594 28.582031 L 33.222656 28.582031 C 33.375 27.554688 34.207031 26.773438 35.203125 26.773438 Z M 35.203125 26.773438"/><path fill="#FE5C96" d="M 43.171875 29.964844 L 25.898438 29.964844 C 25.054688 29.964844 24.109375 30.769531 23.59375 31.277344 C 23.269531 31.664062 23.210938 31.929688 23.238281 32.230469 C 23.441406 34.21875 24.769531 36.09375 27.015625 37.570312 C 29.003906 38.871094 31.503906 39.730469 34.234375 40.058594 C 35.066406 40.160156 35.925781 40.214844 36.789062 40.214844 C 38.394531 40.214844 39.957031 40.035156 41.421875 39.699219 C 43.34375 39.253906 45.097656 38.535156 46.570312 37.570312 C 48.816406 36.09375 50.136719 34.214844 50.347656 32.230469 C 50.382812 31.925781 50.214844 31.484375 49.992188 31.277344 C 49.476562 30.769531 48.53125 29.964844 47.6875 29.964844 Z M 43.171875 29.964844"/><path fill="#FE5C96" d="M 47.796875 39.429688 C 46.457031 40.3125 44.914062 41.015625 43.238281 41.515625 C 41.238281 42.117188 39.050781 42.433594 36.796875 42.433594 C 36.636719 42.433594 36.46875 42.433594 36.308594 42.429688 C 32.347656 42.351562 28.632812 41.292969 25.792969 39.429688 C 24.597656 38.640625 23.601562 37.742188 22.828125 36.75 C 22.636719 36.507812 22.5 36.550781 22.5 36.855469 L 22.5 44.585938 C 22.5 46.542969 24.019531 48.136719 25.894531 48.136719 L 47.6875 48.136719 C 48.300781 48.136719 48.878906 47.964844 49.371094 47.664062 C 50.394531 47.054688 51.082031 45.90625 51.082031 44.585938 L 51.082031 36.863281 C 51.082031 36.558594 50.941406 36.511719 50.753906 36.757812 C 49.988281 37.742188 48.996094 38.640625 47.796875 39.429688 Z M 47.796875 39.429688"/><g clip-path="url(#b)"><path fill="#FFF" d="M 29.339844 39.328125 L 23.769531 39.328125 C 21.28125 39.328125 19.257812 37.292969 19.257812 34.789062 C 19.257812 32.289062 21.28125 30.253906 23.769531 30.253906 L 29.339844 30.253906 C 29.613281 30.253906 29.835938 30.476562 29.835938 30.75 L 29.835938 38.832031 C 29.835938 39.105469 29.613281 39.328125 29.339844 39.328125 Z M 23.769531 31.246094 C 21.824219 31.246094 20.246094 32.835938 20.246094 34.789062 C 20.246094 36.746094 21.824219 38.335938 23.769531 38.335938 L 28.847656 38.335938 L 28.847656 31.246094 Z M 23.769531 31.246094"/></g><g clip-path="url(#c)"><path fill="#FFF" d="M 43.304688 45.804688 C 42.542969 45.804688 41.925781 45.183594 41.925781 44.417969 L 41.925781 25.160156 C 41.925781 24.398438 42.542969 23.773438 43.304688 23.773438 C 44.0625 23.773438 44.679688 24.398438 44.679688 25.160156 L 44.679688 44.417969 C 44.679688 45.183594 44.0625 45.804688 43.304688 45.804688 Z M 43.304688 24.769531 C 43.089844 24.769531 42.914062 24.945312 42.914062 25.160156 L 42.914062 44.417969 C 42.914062 44.636719 43.089844 44.808594 43.304688 44.808594 C 43.519531 44.808594 43.691406 44.636719 43.691406 44.417969 L 43.691406 25.160156 C 43.691406 24.945312 43.519531 24.769531 43.304688 24.769531 Z M 43.304688 24.769531"/></g><path fill="#FFF" d="M 29.339844 31.246094 C 29.148438 31.246094 28.960938 31.132812 28.882812 30.9375 C 28.78125 30.683594 28.902344 30.394531 29.152344 30.289062 L 42.234375 24.878906 C 42.484375 24.777344 42.773438 24.898438 42.878906 25.152344 C 42.984375 25.40625 42.863281 25.695312 42.609375 25.800781 L 29.53125 31.210938 C 29.46875 31.234375 29.402344 31.246094 29.339844 31.246094 Z M 29.339844 31.246094"/><path fill="#FFF" d="M 42.421875 44.738281 C 42.359375 44.738281 42.292969 44.726562 42.234375 44.699219 L 29.152344 39.292969 C 28.902344 39.1875 28.78125 38.894531 28.882812 38.640625 C 28.988281 38.386719 29.277344 38.265625 29.527344 38.371094 L 42.609375 43.78125 C 42.863281 43.882812 42.980469 44.175781 42.878906 44.429688 C 42.800781 44.621094 42.617188 44.738281 42.421875 44.738281 Z M 42.421875 44.738281"/><g clip-path="url(#d)"><path fill="#FFF" d="M 24.964844 50.027344 C 23.253906 50.027344 21.859375 48.625 21.859375 46.902344 L 21.859375 38.832031 C 21.859375 38.558594 22.082031 38.335938 22.355469 38.335938 L 27.578125 38.335938 C 27.851562 38.335938 28.074219 38.558594 28.074219 38.832031 L 28.074219 46.902344 C 28.074219 48.625 26.679688 50.027344 24.964844 50.027344 Z M 22.847656 39.328125 L 22.847656 46.902344 C 22.847656 48.078125 23.800781 49.03125 24.964844 49.03125 C 26.132812 49.03125 27.085938 48.074219 27.085938 46.902344 L 27.085938 39.328125 Z M 22.847656 39.328125"/></g><g clip-path="url(#e)"><path fill="#FFF" d="M 53.933594 34.800781 L 47.566406 34.800781 C 47.292969 34.800781 47.074219 34.578125 47.074219 34.304688 C 47.074219 34.027344 47.292969 33.804688 47.566406 33.804688 L 53.933594 33.804688 C 54.207031 33.804688 54.425781 34.027344 54.425781 34.304688 C 54.425781 34.578125 54.207031 34.800781 53.933594 34.800781 Z M 53.933594 34.800781"/></g><path fill="#FFF" d="M 47.078125 31.746094 C 46.949219 31.746094 46.824219 31.695312 46.726562 31.597656 C 46.535156 31.402344 46.535156 31.089844 46.726562 30.894531 L 51.230469 26.363281 C 51.421875 26.171875 51.734375 26.171875 51.929688 26.363281 C 52.121094 26.558594 52.121094 26.875 51.929688 27.070312 L 47.425781 31.597656 C 47.328125 31.695312 47.203125 31.746094 47.078125 31.746094 Z M 47.078125 31.746094"/><path fill="#FFF" d="M 51.578125 42.09375 C 51.453125 42.09375 51.324219 42.042969 51.230469 41.945312 L 46.726562 37.414062 C 46.535156 37.222656 46.535156 36.90625 46.726562 36.710938 C 46.921875 36.519531 47.234375 36.519531 47.425781 36.710938 L 51.929688 41.242188 C 52.121094 41.4375 52.121094 41.75 51.929688 41.945312 C 51.832031 42.042969 51.703125 42.09375 51.578125 42.09375 Z M 51.578125 42.09375"/><path fill="#FFF" d="M 44.3125 36.960938 C 44.039062 36.960938 43.820312 36.738281 43.820312 36.464844 C 43.820312 36.1875 44.039062 35.964844 44.3125 35.964844 C 44.855469 35.964844 45.292969 35.523438 45.292969 34.980469 L 45.292969 33.628906 C 45.292969 33.085938 44.855469 32.640625 44.3125 32.640625 C 44.039062 32.640625 43.820312 32.417969 43.820312 32.144531 C 43.820312 31.871094 44.039062 31.648438 44.3125 31.648438 C 45.398438 31.648438 46.28125 32.535156 46.28125 33.628906 L 46.28125 34.980469 C 46.28125 36.074219 45.398438 36.960938 44.3125 36.960938 Z M 44.3125 36.960938"/></svg>
