<svg width="98" height="98" viewBox="0 0 98 98" fill="none" xmlns="http://www.w3.org/2000/svg">
<rect width="98" height="98" rx="30" fill="#FE5C96"/>
<path d="M46.9385 35.6969H51.1899C52.5207 35.6969 53.6224 36.7468 53.8294 38.1072H57.5485C57.3119 34.6987 54.554 32 51.1899 32H46.9385C43.5743 32 40.8164 34.6987 40.5798 38.1072H44.2989C44.4985 36.7394 45.6076 35.6969 46.9385 35.6969Z" fill="white"/>
<path d="M57.564 39.9557H53.8671H44.2552H40.5583H34.5324C33.4086 39.9557 32.1442 41.0278 31.4566 41.7007C31.0278 42.2182 30.9464 42.5731 30.9834 42.9724C31.257 45.6268 33.0241 48.1259 36.0186 50.0926C38.6729 51.8301 42.0075 52.9762 45.6452 53.4124C46.7543 53.5455 47.9003 53.6194 49.0537 53.6194C51.1905 53.6194 53.2757 53.3828 55.2275 52.9318C57.7932 52.3403 60.1297 51.3791 62.0963 50.0926C65.0908 48.1259 66.8505 45.6194 67.1315 42.9724C67.1759 42.5657 66.9541 41.9816 66.6584 41.7007C65.9707 41.0278 64.7064 39.9557 63.5825 39.9557H57.564Z" fill="white"/>
<path d="M63.7302 52.5722C61.941 53.7478 59.8854 54.6868 57.6526 55.3523C54.9834 56.1582 52.0703 56.5797 49.0611 56.5797C48.8466 56.5797 48.6248 56.5797 48.4104 56.5722C43.1313 56.4688 38.1774 55.0565 34.3918 52.5722C32.7947 51.5223 31.4712 50.3245 30.4361 49.001C30.1847 48.6757 29.9999 48.7349 29.9999 49.1414V59.4484C29.9999 62.0583 32.0258 64.1804 34.5249 64.1804H56.0037H63.5823C64.4031 64.1804 65.172 63.9512 65.83 63.5519C67.1905 62.7386 68.1073 61.2081 68.1073 59.4484V49.1489C68.1073 48.7423 67.9225 48.6831 67.6711 49.0084C66.6507 50.3244 65.3272 51.5223 63.7302 52.5722Z" fill="white"/>
</svg>
