<svg width="98" height="98" viewBox="0 0 98 98" fill="none" xmlns="http://www.w3.org/2000/svg">
<rect width="98" height="98" rx="30" fill="#FFBB39"/>
<path d="M60.6668 37.334H59.0001V34.0006C59.0001 33.5586 58.8245 33.1347 58.512 32.8221C58.1994 32.5095 57.7755 32.334 57.3335 32.334C56.8914 32.334 56.4675 32.5095 56.155 32.8221C55.8424 33.1347 55.6668 33.5586 55.6668 34.0006V37.334H42.3335V34.0006C42.3335 33.5586 42.1579 33.1347 41.8453 32.8221C41.5328 32.5095 41.1088 32.334 40.6668 32.334C40.2248 32.334 39.8008 32.5095 39.4883 32.8221C39.1757 33.1347 39.0001 33.5586 39.0001 34.0006V37.334H37.3335C36.0074 37.334 34.7356 37.8607 33.7979 38.7984C32.8602 39.7361 32.3335 41.0079 32.3335 42.334V44.0006H65.6668V42.334C65.6668 41.0079 65.14 39.7361 64.2023 38.7984C63.2647 37.8607 61.9929 37.334 60.6668 37.334Z" fill="white"/>
<path d="M32.3335 60.6673C32.3335 61.9934 32.8602 63.2652 33.7979 64.2029C34.7356 65.1405 36.0074 65.6673 37.3335 65.6673H60.6668C61.9929 65.6673 63.2647 65.1405 64.2023 64.2029C65.14 63.2652 65.6668 61.9934 65.6668 60.6673V47.334H32.3335V60.6673Z" fill="white"/>
</svg>
