<svg xmlns="http://www.w3.org/2000/svg" width="98" viewBox="0 0 73.5 73.5" height="98" version="1.0"><defs><clipPath id="a"><path d="M 0 0 L 73.003906 0 L 73.003906 73.003906 L 0 73.003906 Z M 0 0"/></clipPath><clipPath id="b"><path d="M 24.625 21.410156 L 48.601562 21.410156 L 48.601562 51.410156 L 24.625 51.410156 Z M 24.625 21.410156"/></clipPath></defs><g clip-path="url(#a)"><path fill="#FF9102" d="M 22.5 0 L 51 0 C 51.738281 0 52.472656 0.0351562 53.207031 0.109375 C 53.9375 0.179688 54.667969 0.289062 55.390625 0.433594 C 56.113281 0.574219 56.828125 0.753906 57.53125 0.96875 C 58.238281 1.183594 58.929688 1.429688 59.609375 1.710938 C 60.292969 1.996094 60.957031 2.308594 61.605469 2.65625 C 62.257812 3.003906 62.886719 3.382812 63.5 3.792969 C 64.113281 4.203125 64.703125 4.640625 65.273438 5.105469 C 65.84375 5.574219 66.390625 6.070312 66.910156 6.589844 C 67.429688 7.109375 67.925781 7.65625 68.394531 8.226562 C 68.859375 8.796875 69.296875 9.386719 69.707031 10 C 70.117188 10.613281 70.496094 11.242188 70.84375 11.894531 C 71.191406 12.542969 71.503906 13.207031 71.789062 13.890625 C 72.070312 14.570312 72.316406 15.261719 72.53125 15.96875 C 72.746094 16.671875 72.925781 17.386719 73.066406 18.109375 C 73.210938 18.832031 73.320312 19.5625 73.390625 20.292969 C 73.464844 21.027344 73.5 21.761719 73.5 22.5 L 73.5 51 C 73.5 51.738281 73.464844 52.472656 73.390625 53.207031 C 73.320312 53.9375 73.210938 54.667969 73.066406 55.390625 C 72.925781 56.113281 72.746094 56.828125 72.53125 57.53125 C 72.316406 58.238281 72.070312 58.929688 71.789062 59.609375 C 71.503906 60.292969 71.191406 60.957031 70.84375 61.605469 C 70.496094 62.257812 70.117188 62.886719 69.707031 63.5 C 69.296875 64.113281 68.859375 64.703125 68.394531 65.273438 C 67.925781 65.84375 67.429688 66.390625 66.910156 66.910156 C 66.390625 67.429688 65.84375 67.925781 65.273438 68.394531 C 64.703125 68.859375 64.113281 69.296875 63.5 69.707031 C 62.886719 70.117188 62.257812 70.496094 61.605469 70.84375 C 60.957031 71.191406 60.292969 71.503906 59.609375 71.789062 C 58.929688 72.070312 58.238281 72.316406 57.53125 72.53125 C 56.828125 72.746094 56.113281 72.925781 55.390625 73.066406 C 54.667969 73.210938 53.9375 73.320312 53.207031 73.390625 C 52.472656 73.464844 51.738281 73.5 51 73.5 L 22.5 73.5 C 21.761719 73.5 21.027344 73.464844 20.292969 73.390625 C 19.5625 73.320312 18.832031 73.210938 18.109375 73.066406 C 17.386719 72.925781 16.671875 72.746094 15.96875 72.53125 C 15.261719 72.316406 14.570312 72.070312 13.890625 71.789062 C 13.207031 71.503906 12.542969 71.191406 11.894531 70.84375 C 11.242188 70.496094 10.613281 70.117188 10 69.707031 C 9.386719 69.296875 8.796875 68.859375 8.226562 68.394531 C 7.65625 67.925781 7.109375 67.429688 6.589844 66.910156 C 6.070312 66.390625 5.574219 65.84375 5.105469 65.273438 C 4.640625 64.703125 4.203125 64.113281 3.792969 63.5 C 3.382812 62.886719 3.003906 62.257812 2.65625 61.605469 C 2.308594 60.957031 1.996094 60.292969 1.710938 59.609375 C 1.429688 58.929688 1.183594 58.238281 0.96875 57.53125 C 0.753906 56.828125 0.574219 56.113281 0.433594 55.390625 C 0.289062 54.667969 0.179688 53.9375 0.109375 53.207031 C 0.0351562 52.472656 0 51.738281 0 51 L 0 22.5 C 0 21.761719 0.0351562 21.027344 0.109375 20.292969 C 0.179688 19.5625 0.289062 18.832031 0.433594 18.109375 C 0.574219 17.386719 0.753906 16.671875 0.96875 15.96875 C 1.183594 15.261719 1.429688 14.570312 1.710938 13.890625 C 1.996094 13.207031 2.308594 12.542969 2.65625 11.894531 C 3.003906 11.242188 3.382812 10.613281 3.792969 10 C 4.203125 9.386719 4.640625 8.796875 5.105469 8.226562 C 5.574219 7.65625 6.070312 7.109375 6.589844 6.589844 C 7.109375 6.070312 7.65625 5.574219 8.226562 5.105469 C 8.796875 4.640625 9.386719 4.203125 10 3.792969 C 10.613281 3.382812 11.242188 3.003906 11.894531 2.65625 C 12.542969 2.308594 13.207031 1.996094 13.890625 1.710938 C 14.570312 1.429688 15.261719 1.183594 15.96875 0.96875 C 16.671875 0.753906 17.386719 0.574219 18.109375 0.433594 C 18.832031 0.289062 19.5625 0.179688 20.292969 0.109375 C 21.027344 0.0351562 21.761719 0 22.5 0 Z M 22.5 0"/></g><path fill="#FF9102" d="M 35.203125 26.773438 L 38.390625 26.773438 C 39.390625 26.773438 40.214844 27.558594 40.371094 28.582031 L 43.160156 28.582031 C 42.984375 26.023438 40.914062 24 38.390625 24 L 35.203125 24 C 32.679688 24 30.613281 26.023438 30.433594 28.582031 L 33.222656 28.582031 C 33.375 27.554688 34.207031 26.773438 35.203125 26.773438 Z M 35.203125 26.773438"/><path fill="#FF9102" d="M 43.171875 29.964844 L 25.898438 29.964844 C 25.054688 29.964844 24.109375 30.769531 23.59375 31.277344 C 23.269531 31.664062 23.210938 31.929688 23.238281 32.230469 C 23.441406 34.21875 24.769531 36.09375 27.015625 37.570312 C 29.003906 38.871094 31.503906 39.730469 34.234375 40.058594 C 35.066406 40.160156 35.925781 40.214844 36.789062 40.214844 C 38.394531 40.214844 39.957031 40.035156 41.421875 39.699219 C 43.34375 39.253906 45.097656 38.535156 46.570312 37.570312 C 48.816406 36.09375 50.136719 34.214844 50.347656 32.230469 C 50.382812 31.925781 50.214844 31.484375 49.992188 31.277344 C 49.476562 30.769531 48.53125 29.964844 47.6875 29.964844 Z M 43.171875 29.964844"/><path fill="#FF9102" d="M 47.796875 39.429688 C 46.457031 40.3125 44.914062 41.015625 43.238281 41.515625 C 41.238281 42.117188 39.050781 42.433594 36.796875 42.433594 C 36.636719 42.433594 36.46875 42.433594 36.308594 42.429688 C 32.347656 42.351562 28.632812 41.292969 25.792969 39.429688 C 24.597656 38.640625 23.601562 37.742188 22.828125 36.75 C 22.636719 36.507812 22.5 36.550781 22.5 36.855469 L 22.5 44.585938 C 22.5 46.542969 24.019531 48.136719 25.894531 48.136719 L 47.6875 48.136719 C 48.300781 48.136719 48.878906 47.964844 49.371094 47.664062 C 50.394531 47.054688 51.082031 45.90625 51.082031 44.585938 L 51.082031 36.863281 C 51.082031 36.558594 50.941406 36.511719 50.753906 36.757812 C 49.988281 37.742188 48.996094 38.640625 47.796875 39.429688 Z M 47.796875 39.429688"/><g clip-path="url(#b)"><path fill="#FFF" d="M 41.632812 36.191406 C 41.632812 36.203125 41.632812 36.21875 41.632812 36.230469 C 41.632812 37.304688 41.632812 38.378906 41.632812 39.453125 C 41.632812 41.269531 40.660156 43.019531 39 43.859375 C 37.714844 44.511719 36.207031 44.597656 34.863281 44.066406 C 33.582031 43.554688 32.542969 42.5 32.074219 41.210938 C 31.75 40.324219 31.777344 39.421875 31.777344 38.496094 C 31.777344 37.742188 31.777344 36.988281 31.777344 36.230469 C 31.777344 36.21875 31.777344 36.203125 31.78125 36.191406 C 31.386719 36.058594 31.101562 35.691406 31.101562 35.257812 C 31.101562 34.714844 31.542969 34.273438 32.09375 34.273438 C 32.644531 34.273438 33.085938 34.714844 33.085938 35.257812 C 33.085938 35.691406 32.804688 36.058594 32.40625 36.191406 C 32.410156 36.203125 32.410156 36.21875 32.410156 36.230469 C 32.410156 37.164062 32.410156 38.09375 32.410156 39.027344 C 32.410156 39.488281 32.398438 39.949219 32.496094 40.402344 C 32.675781 41.210938 33.066406 41.964844 33.667969 42.550781 C 34.683594 43.535156 36.167969 44.011719 37.570312 43.707031 C 38.945312 43.410156 40.113281 42.488281 40.664062 41.199219 C 41.039062 40.328125 41 39.421875 41 38.496094 C 41 37.742188 41 36.988281 41 36.230469 C 41 36.21875 41 36.203125 41.003906 36.191406 C 40.609375 36.058594 40.324219 35.691406 40.324219 35.257812 C 40.324219 34.714844 40.769531 34.273438 41.316406 34.273438 C 41.867188 34.273438 42.3125 34.714844 42.3125 35.257812 C 42.3125 35.691406 42.027344 36.058594 41.632812 36.191406 Z M 27.859375 29.90625 C 30.542969 29.90625 33.226562 29.90625 35.910156 29.90625 C 39.054688 29.90625 42.203125 29.90625 45.347656 29.90625 C 45.792969 30.453125 46.238281 31.003906 46.683594 31.550781 C 44.46875 31.550781 42.253906 31.550781 40.035156 31.550781 C 40.023438 31.550781 40.011719 31.550781 40 31.550781 C 36.144531 31.550781 32.289062 31.550781 28.433594 31.550781 C 28.421875 31.550781 28.410156 31.550781 28.398438 31.550781 C 27.773438 31.550781 27.148438 31.550781 26.523438 31.550781 C 26.96875 31.003906 27.414062 30.453125 27.859375 29.90625 Z M 32.746094 24.621094 C 33.296875 23.335938 34.46875 22.414062 35.839844 22.117188 C 37.246094 21.8125 38.726562 22.289062 39.742188 23.273438 C 40.34375 23.859375 40.734375 24.613281 40.914062 25.421875 C 41.015625 25.875 41 26.335938 41 26.796875 C 41 27.625 41 28.453125 41 29.277344 C 39.765625 29.277344 38.53125 29.277344 37.296875 29.277344 C 35.667969 29.277344 34.039062 29.277344 32.410156 29.277344 C 32.410156 28.628906 32.410156 27.976562 32.410156 27.328125 C 32.410156 26.402344 32.371094 25.496094 32.746094 24.621094 Z M 48.230469 43.402344 C 48.0625 39.871094 47.894531 36.339844 47.722656 32.808594 C 47.707031 32.496094 47.695312 32.179688 47.679688 31.863281 C 47.671875 31.753906 47.617188 31.660156 47.535156 31.601562 C 46.9375 30.867188 46.34375 30.132812 45.746094 29.402344 C 45.738281 29.390625 45.730469 29.378906 45.722656 29.371094 C 45.632812 29.261719 45.523438 29.246094 45.429688 29.277344 C 44.164062 29.277344 42.898438 29.277344 41.632812 29.277344 C 41.632812 28.628906 41.632812 27.976562 41.632812 27.328125 C 41.632812 26.402344 41.660156 25.5 41.335938 24.613281 C 40.867188 23.324219 39.832031 22.265625 38.546875 21.757812 C 37.203125 21.222656 35.695312 21.3125 34.410156 21.964844 C 32.75 22.804688 31.777344 24.554688 31.777344 26.371094 C 31.777344 27.339844 31.777344 28.308594 31.777344 29.277344 C 30.46875 29.277344 29.160156 29.277344 27.851562 29.277344 C 27.777344 29.277344 27.695312 29.269531 27.625 29.289062 C 27.390625 29.355469 27.191406 29.734375 27.054688 29.902344 C 26.582031 30.484375 26.113281 31.0625 25.640625 31.640625 C 25.636719 31.648438 25.628906 31.65625 25.625 31.664062 C 25.582031 31.71875 25.550781 31.789062 25.546875 31.863281 C 25.425781 34.425781 25.300781 36.992188 25.179688 39.554688 C 25.011719 43.085938 24.839844 46.617188 24.671875 50.148438 C 24.65625 50.464844 24.640625 50.78125 24.625 51.09375 C 24.617188 51.265625 24.777344 51.410156 24.941406 51.410156 C 27.261719 51.410156 29.578125 51.410156 31.894531 51.410156 C 35.898438 51.410156 39.90625 51.410156 43.914062 51.410156 C 45.371094 51.410156 46.828125 51.410156 48.285156 51.410156 C 48.351562 51.410156 48.410156 51.390625 48.457031 51.359375 C 48.542969 51.316406 48.605469 51.226562 48.601562 51.09375 C 48.476562 48.53125 48.355469 45.96875 48.230469 43.402344"/></g></svg>
