<svg xmlns="http://www.w3.org/2000/svg" width="98" viewBox="0 0 73.5 73.5" height="98" version="1.0"><defs><clipPath id="a"><path d="M 0 0 L 73.003906 0 L 73.003906 73.003906 L 0 73.003906 Z M 0 0"/></clipPath><clipPath id="b"><path d="M 22.050781 22.050781 L 51.300781 22.050781 L 51.300781 51.300781 L 22.050781 51.300781 Z M 22.050781 22.050781"/></clipPath></defs><g clip-path="url(#a)"><path fill="#FFBB39" d="M 22.5 0 L 51 0 C 51.738281 0 52.472656 0.0351562 53.207031 0.109375 C 53.9375 0.179688 54.667969 0.289062 55.390625 0.433594 C 56.113281 0.574219 56.828125 0.753906 57.53125 0.96875 C 58.238281 1.183594 58.929688 1.429688 59.609375 1.710938 C 60.292969 1.996094 60.957031 2.308594 61.605469 2.65625 C 62.257812 3.003906 62.886719 3.382812 63.5 3.792969 C 64.113281 4.203125 64.703125 4.640625 65.273438 5.105469 C 65.84375 5.574219 66.390625 6.070312 66.910156 6.589844 C 67.429688 7.109375 67.925781 7.65625 68.394531 8.226562 C 68.859375 8.796875 69.296875 9.386719 69.707031 10 C 70.117188 10.613281 70.496094 11.242188 70.84375 11.894531 C 71.191406 12.542969 71.503906 13.207031 71.789062 13.890625 C 72.070312 14.570312 72.316406 15.261719 72.53125 15.96875 C 72.746094 16.671875 72.925781 17.386719 73.066406 18.109375 C 73.210938 18.832031 73.320312 19.5625 73.390625 20.292969 C 73.464844 21.027344 73.5 21.761719 73.5 22.5 L 73.5 51 C 73.5 51.738281 73.464844 52.472656 73.390625 53.207031 C 73.320312 53.9375 73.210938 54.667969 73.066406 55.390625 C 72.925781 56.113281 72.746094 56.828125 72.53125 57.53125 C 72.316406 58.238281 72.070312 58.929688 71.789062 59.609375 C 71.503906 60.292969 71.191406 60.957031 70.84375 61.605469 C 70.496094 62.257812 70.117188 62.886719 69.707031 63.5 C 69.296875 64.113281 68.859375 64.703125 68.394531 65.273438 C 67.925781 65.84375 67.429688 66.390625 66.910156 66.910156 C 66.390625 67.429688 65.84375 67.925781 65.273438 68.394531 C 64.703125 68.859375 64.113281 69.296875 63.5 69.707031 C 62.886719 70.117188 62.257812 70.496094 61.605469 70.84375 C 60.957031 71.191406 60.292969 71.503906 59.609375 71.789062 C 58.929688 72.070312 58.238281 72.316406 57.53125 72.53125 C 56.828125 72.746094 56.113281 72.925781 55.390625 73.066406 C 54.667969 73.210938 53.9375 73.320312 53.207031 73.390625 C 52.472656 73.464844 51.738281 73.5 51 73.5 L 22.5 73.5 C 21.761719 73.5 21.027344 73.464844 20.292969 73.390625 C 19.5625 73.320312 18.832031 73.210938 18.109375 73.066406 C 17.386719 72.925781 16.671875 72.746094 15.96875 72.53125 C 15.261719 72.316406 14.570312 72.070312 13.890625 71.789062 C 13.207031 71.503906 12.542969 71.191406 11.894531 70.84375 C 11.242188 70.496094 10.613281 70.117188 10 69.707031 C 9.386719 69.296875 8.796875 68.859375 8.226562 68.394531 C 7.65625 67.925781 7.109375 67.429688 6.589844 66.910156 C 6.070312 66.390625 5.574219 65.84375 5.105469 65.273438 C 4.640625 64.703125 4.203125 64.113281 3.792969 63.5 C 3.382812 62.886719 3.003906 62.257812 2.65625 61.605469 C 2.308594 60.957031 1.996094 60.292969 1.710938 59.609375 C 1.429688 58.929688 1.183594 58.238281 0.96875 57.53125 C 0.753906 56.828125 0.574219 56.113281 0.433594 55.390625 C 0.289062 54.667969 0.179688 53.9375 0.109375 53.207031 C 0.0351562 52.472656 0 51.738281 0 51 L 0 22.5 C 0 21.761719 0.0351562 21.027344 0.109375 20.292969 C 0.179688 19.5625 0.289062 18.832031 0.433594 18.109375 C 0.574219 17.386719 0.753906 16.671875 0.96875 15.96875 C 1.183594 15.261719 1.429688 14.570312 1.710938 13.890625 C 1.996094 13.207031 2.308594 12.542969 2.65625 11.894531 C 3.003906 11.242188 3.382812 10.613281 3.792969 10 C 4.203125 9.386719 4.640625 8.796875 5.105469 8.226562 C 5.574219 7.65625 6.070312 7.109375 6.589844 6.589844 C 7.109375 6.070312 7.65625 5.574219 8.226562 5.105469 C 8.796875 4.640625 9.386719 4.203125 10 3.792969 C 10.613281 3.382812 11.242188 3.003906 11.894531 2.65625 C 12.542969 2.308594 13.207031 1.996094 13.890625 1.710938 C 14.570312 1.429688 15.261719 1.183594 15.96875 0.96875 C 16.671875 0.753906 17.386719 0.574219 18.109375 0.433594 C 18.832031 0.289062 19.5625 0.179688 20.292969 0.109375 C 21.027344 0.0351562 21.761719 0 22.5 0 Z M 22.5 0"/></g><path fill="#FFBB39" d="M 35.203125 26.773438 L 38.390625 26.773438 C 39.390625 26.773438 40.214844 27.558594 40.371094 28.582031 L 43.160156 28.582031 C 42.984375 26.023438 40.914062 24 38.390625 24 L 35.203125 24 C 32.679688 24 30.613281 26.023438 30.433594 28.582031 L 33.222656 28.582031 C 33.375 27.554688 34.207031 26.773438 35.203125 26.773438 Z M 35.203125 26.773438"/><path fill="#FFBB39" d="M 43.171875 29.964844 L 25.898438 29.964844 C 25.054688 29.964844 24.109375 30.769531 23.59375 31.277344 C 23.269531 31.664062 23.210938 31.929688 23.238281 32.230469 C 23.441406 34.21875 24.769531 36.09375 27.015625 37.570312 C 29.003906 38.871094 31.503906 39.730469 34.234375 40.058594 C 35.066406 40.160156 35.925781 40.214844 36.789062 40.214844 C 38.394531 40.214844 39.957031 40.035156 41.421875 39.699219 C 43.34375 39.253906 45.097656 38.535156 46.570312 37.570312 C 48.816406 36.09375 50.136719 34.214844 50.347656 32.230469 C 50.382812 31.925781 50.214844 31.484375 49.992188 31.277344 C 49.476562 30.769531 48.53125 29.964844 47.6875 29.964844 Z M 43.171875 29.964844"/><path fill="#FFBB39" d="M 47.796875 39.429688 C 46.457031 40.3125 44.914062 41.015625 43.238281 41.515625 C 41.238281 42.117188 39.050781 42.433594 36.796875 42.433594 C 36.636719 42.433594 36.46875 42.433594 36.308594 42.429688 C 32.347656 42.351562 28.632812 41.292969 25.792969 39.429688 C 24.597656 38.640625 23.601562 37.742188 22.828125 36.75 C 22.636719 36.507812 22.5 36.550781 22.5 36.855469 L 22.5 44.585938 C 22.5 46.542969 24.019531 48.136719 25.894531 48.136719 L 47.6875 48.136719 C 48.300781 48.136719 48.878906 47.964844 49.371094 47.664062 C 50.394531 47.054688 51.082031 45.90625 51.082031 44.585938 L 51.082031 36.863281 C 51.082031 36.558594 50.941406 36.511719 50.753906 36.757812 C 49.988281 37.742188 48.996094 38.640625 47.796875 39.429688 Z M 47.796875 39.429688"/><g clip-path="url(#b)"><path fill="#FFF" d="M 36.675781 51.300781 C 28.609375 51.300781 22.050781 44.738281 22.050781 36.675781 C 22.050781 28.609375 28.609375 22.050781 36.675781 22.050781 C 44.738281 22.050781 51.300781 28.609375 51.300781 36.675781 C 51.300781 44.738281 44.738281 51.300781 36.675781 51.300781 Z M 36.675781 24.171875 C 29.777344 24.171875 24.167969 29.777344 24.167969 36.675781 C 24.167969 43.570312 29.777344 49.179688 36.675781 49.179688 C 43.570312 49.179688 49.179688 43.570312 49.179688 36.675781 C 49.179688 29.777344 43.570312 24.171875 36.675781 24.171875 Z M 36.675781 24.171875"/></g><path fill="#FFF" d="M 36.976562 44.265625 C 36.863281 44.222656 36.742188 44.152344 36.742188 43.859375 C 36.742188 43.734375 36.761719 43.59375 36.804688 43.421875 L 38.652344 34.46875 C 38.691406 34.257812 38.714844 34.039062 38.714844 33.820312 C 38.714844 33.238281 38.535156 32.800781 38.183594 32.507812 C 37.394531 31.859375 36.015625 31.988281 33.71875 32.761719 L 33.496094 32.835938 L 33.40625 33.992188 L 33.789062 33.992188 C 34.960938 33.992188 35.242188 34.085938 35.300781 34.113281 C 35.378906 34.148438 35.421875 34.195312 35.421875 34.328125 C 35.421875 34.398438 35.414062 34.480469 35.394531 34.574219 C 35.371094 34.695312 35.34375 34.835938 35.316406 34.988281 L 33.625 43.210938 C 33.546875 43.625 33.503906 43.980469 33.503906 44.265625 C 33.503906 44.921875 33.691406 45.425781 34.0625 45.769531 C 34.425781 46.101562 34.921875 46.273438 35.535156 46.273438 C 36.257812 46.273438 37.226562 46.074219 38.496094 45.660156 L 38.722656 45.589844 L 38.8125 44.417969 L 38.429688 44.417969 C 37.5625 44.417969 37.164062 44.332031 36.976562 44.265625 Z M 36.976562 44.265625"/><path fill="#FFF" d="M 39.40625 27.578125 C 39.058594 27.246094 38.613281 27.078125 38.078125 27.078125 C 37.523438 27.078125 37.058594 27.257812 36.6875 27.617188 C 36.316406 27.976562 36.128906 28.460938 36.128906 29.054688 C 36.128906 29.605469 36.308594 30.058594 36.664062 30.410156 C 37.015625 30.765625 37.46875 30.949219 38.007812 30.949219 C 38.554688 30.949219 39.019531 30.757812 39.390625 30.382812 C 39.757812 30.011719 39.941406 29.527344 39.941406 28.941406 C 39.941406 28.375 39.761719 27.914062 39.40625 27.578125 Z M 39.40625 27.578125"/></svg>
