<svg xmlns="http://www.w3.org/2000/svg" width="98" viewBox="0 0 73.5 73.5" height="98" version="1.0"><defs><clipPath id="a"><path d="M 0 0 L 73.003906 0 L 73.003906 73.003906 L 0 73.003906 Z M 0 0"/></clipPath><clipPath id="b"><path d="M 44 33 L 57.59375 33 L 57.59375 40 L 44 40 Z M 44 33"/></clipPath><clipPath id="c"><path d="M 48 37 L 57.59375 37 L 57.59375 46.441406 L 48 46.441406 Z M 48 37"/></clipPath><clipPath id="d"><path d="M 16 37 L 27 37 L 27 46.441406 L 16 46.441406 Z M 16 37"/></clipPath></defs><g clip-path="url(#a)"><path fill="#9D55FF" d="M 22.5 0 L 51 0 C 51.738281 0 52.472656 0.0351562 53.207031 0.109375 C 53.9375 0.179688 54.667969 0.289062 55.390625 0.433594 C 56.113281 0.574219 56.828125 0.753906 57.53125 0.96875 C 58.238281 1.183594 58.929688 1.429688 59.609375 1.710938 C 60.292969 1.996094 60.957031 2.308594 61.605469 2.65625 C 62.257812 3.003906 62.886719 3.382812 63.5 3.792969 C 64.113281 4.203125 64.703125 4.640625 65.273438 5.105469 C 65.84375 5.574219 66.390625 6.070312 66.910156 6.589844 C 67.429688 7.109375 67.925781 7.65625 68.394531 8.226562 C 68.859375 8.796875 69.296875 9.386719 69.707031 10 C 70.117188 10.613281 70.496094 11.242188 70.84375 11.894531 C 71.191406 12.542969 71.503906 13.207031 71.789062 13.890625 C 72.070312 14.570312 72.316406 15.261719 72.53125 15.96875 C 72.746094 16.671875 72.925781 17.386719 73.066406 18.109375 C 73.210938 18.832031 73.320312 19.5625 73.390625 20.292969 C 73.464844 21.027344 73.5 21.761719 73.5 22.5 L 73.5 51 C 73.5 51.738281 73.464844 52.472656 73.390625 53.207031 C 73.320312 53.9375 73.210938 54.667969 73.066406 55.390625 C 72.925781 56.113281 72.746094 56.828125 72.53125 57.53125 C 72.316406 58.238281 72.070312 58.929688 71.789062 59.609375 C 71.503906 60.292969 71.191406 60.957031 70.84375 61.605469 C 70.496094 62.257812 70.117188 62.886719 69.707031 63.5 C 69.296875 64.113281 68.859375 64.703125 68.394531 65.273438 C 67.925781 65.84375 67.429688 66.390625 66.910156 66.910156 C 66.390625 67.429688 65.84375 67.925781 65.273438 68.394531 C 64.703125 68.859375 64.113281 69.296875 63.5 69.707031 C 62.886719 70.117188 62.257812 70.496094 61.605469 70.84375 C 60.957031 71.191406 60.292969 71.503906 59.609375 71.789062 C 58.929688 72.070312 58.238281 72.316406 57.53125 72.53125 C 56.828125 72.746094 56.113281 72.925781 55.390625 73.066406 C 54.667969 73.210938 53.9375 73.320312 53.207031 73.390625 C 52.472656 73.464844 51.738281 73.5 51 73.5 L 22.5 73.5 C 21.761719 73.5 21.027344 73.464844 20.292969 73.390625 C 19.5625 73.320312 18.832031 73.210938 18.109375 73.066406 C 17.386719 72.925781 16.671875 72.746094 15.96875 72.53125 C 15.261719 72.316406 14.570312 72.070312 13.890625 71.789062 C 13.207031 71.503906 12.542969 71.191406 11.894531 70.84375 C 11.242188 70.496094 10.613281 70.117188 10 69.707031 C 9.386719 69.296875 8.796875 68.859375 8.226562 68.394531 C 7.65625 67.925781 7.109375 67.429688 6.589844 66.910156 C 6.070312 66.390625 5.574219 65.84375 5.105469 65.273438 C 4.640625 64.703125 4.203125 64.113281 3.792969 63.5 C 3.382812 62.886719 3.003906 62.257812 2.65625 61.605469 C 2.308594 60.957031 1.996094 60.292969 1.710938 59.609375 C 1.429688 58.929688 1.183594 58.238281 0.96875 57.53125 C 0.753906 56.828125 0.574219 56.113281 0.433594 55.390625 C 0.289062 54.667969 0.179688 53.9375 0.109375 53.207031 C 0.0351562 52.472656 0 51.738281 0 51 L 0 22.5 C 0 21.761719 0.0351562 21.027344 0.109375 20.292969 C 0.179688 19.5625 0.289062 18.832031 0.433594 18.109375 C 0.574219 17.386719 0.753906 16.671875 0.96875 15.96875 C 1.183594 15.261719 1.429688 14.570312 1.710938 13.890625 C 1.996094 13.207031 2.308594 12.542969 2.65625 11.894531 C 3.003906 11.242188 3.382812 10.613281 3.792969 10 C 4.203125 9.386719 4.640625 8.796875 5.105469 8.226562 C 5.574219 7.65625 6.070312 7.109375 6.589844 6.589844 C 7.109375 6.070312 7.65625 5.574219 8.226562 5.105469 C 8.796875 4.640625 9.386719 4.203125 10 3.792969 C 10.613281 3.382812 11.242188 3.003906 11.894531 2.65625 C 12.542969 2.308594 13.207031 1.996094 13.890625 1.710938 C 14.570312 1.429688 15.261719 1.183594 15.96875 0.96875 C 16.671875 0.753906 17.386719 0.574219 18.109375 0.433594 C 18.832031 0.289062 19.5625 0.179688 20.292969 0.109375 C 21.027344 0.0351562 21.761719 0 22.5 0 Z M 22.5 0"/></g><path fill="#9D55FF" d="M 35.203125 26.773438 L 38.390625 26.773438 C 39.390625 26.773438 40.214844 27.558594 40.371094 28.582031 L 43.160156 28.582031 C 42.984375 26.023438 40.914062 24 38.390625 24 L 35.203125 24 C 32.679688 24 30.613281 26.023438 30.433594 28.582031 L 33.222656 28.582031 C 33.375 27.554688 34.207031 26.773438 35.203125 26.773438 Z M 35.203125 26.773438"/><path fill="#9D55FF" d="M 43.171875 29.964844 L 25.898438 29.964844 C 25.054688 29.964844 24.109375 30.769531 23.59375 31.277344 C 23.269531 31.664062 23.210938 31.929688 23.238281 32.230469 C 23.441406 34.21875 24.769531 36.09375 27.015625 37.570312 C 29.003906 38.871094 31.503906 39.730469 34.234375 40.058594 C 35.066406 40.160156 35.925781 40.214844 36.789062 40.214844 C 38.394531 40.214844 39.957031 40.035156 41.421875 39.699219 C 43.34375 39.253906 45.097656 38.535156 46.570312 37.570312 C 48.816406 36.09375 50.136719 34.214844 50.347656 32.230469 C 50.382812 31.925781 50.214844 31.484375 49.992188 31.277344 C 49.476562 30.769531 48.53125 29.964844 47.6875 29.964844 Z M 43.171875 29.964844"/><path fill="#9D55FF" d="M 47.796875 39.429688 C 46.457031 40.3125 44.914062 41.015625 43.238281 41.515625 C 41.238281 42.117188 39.050781 42.433594 36.796875 42.433594 C 36.636719 42.433594 36.46875 42.433594 36.308594 42.429688 C 32.347656 42.351562 28.632812 41.292969 25.792969 39.429688 C 24.597656 38.640625 23.601562 37.742188 22.828125 36.75 C 22.636719 36.507812 22.5 36.550781 22.5 36.855469 L 22.5 44.585938 C 22.5 46.542969 24.019531 48.136719 25.894531 48.136719 L 47.6875 48.136719 C 48.300781 48.136719 48.878906 47.964844 49.371094 47.664062 C 50.394531 47.054688 51.082031 45.90625 51.082031 44.585938 L 51.082031 36.863281 C 51.082031 36.558594 50.941406 36.511719 50.753906 36.757812 C 49.988281 37.742188 48.996094 38.640625 47.796875 39.429688 Z M 47.796875 39.429688"/><path fill="#FFF" d="M 44.070312 35.570312 C 43.53125 33.59375 44.347656 30.121094 41.296875 30.921875 L 36.628906 32.578125 C 31.617188 34.355469 36.765625 35.253906 35.890625 35.675781 C 36.722656 35.617188 44.070312 35.570312 44.070312 35.570312 Z M 44.070312 35.570312"/><g clip-path="url(#b)"><path fill="#FFF" d="M 57.90625 39.058594 L 57.90625 38.246094 C 57.90625 38.246094 56.628906 34.621094 51.683594 33.882812 C 47.398438 33.246094 44.984375 36.988281 44.984375 36.988281 L 47.128906 38.320312 C 47.128906 38.320312 48.574219 36.058594 51.738281 35.953125 C 56.339844 35.800781 57.90625 39.058594 57.90625 39.058594 Z M 57.90625 39.058594"/></g><g clip-path="url(#c)"><path fill="#FFF" d="M 51.863281 37.132812 C 55.144531 37.132812 57.804688 39.214844 57.804688 41.785156 C 57.804688 44.355469 55.144531 46.4375 51.863281 46.4375 C 50.601562 46.4375 49.433594 46.128906 48.46875 45.605469 C 49.214844 45.902344 50.058594 46.070312 50.953125 46.070312 C 53.976562 46.070312 56.425781 44.152344 56.425781 41.785156 C 56.425781 39.417969 53.976562 37.5 50.953125 37.5 C 50.058594 37.5 49.210938 37.671875 48.464844 37.96875 C 49.425781 37.441406 50.597656 37.132812 51.863281 37.132812 Z M 51.863281 37.132812" fill-rule="evenodd"/></g><g clip-path="url(#d)"><path fill="#FFF" d="M 22.9375 37.175781 C 19.613281 37.175781 16.921875 39.175781 16.921875 41.644531 C 16.921875 44.113281 19.613281 46.113281 22.9375 46.113281 C 24.214844 46.113281 25.402344 45.816406 26.375 45.3125 C 25.621094 45.601562 24.765625 45.761719 23.859375 45.761719 C 20.796875 45.761719 18.316406 43.917969 18.316406 41.644531 C 18.316406 39.371094 20.796875 37.53125 23.859375 37.53125 C 24.765625 37.53125 25.625 37.691406 26.382812 37.980469 C 25.40625 37.472656 24.21875 37.175781 22.9375 37.175781 Z M 22.9375 37.175781" fill-rule="evenodd"/></g><path fill="#FFF" d="M 51.359375 41.882812 L 52.785156 42.023438 L 44.808594 29.429688 L 36.289062 27.867188 L 33.644531 28.3125 L 43.820312 30.097656 Z M 51.359375 41.882812"/><path fill="#FFF" d="M 50.855469 28.886719 L 50.53125 32.449219 C 50.53125 32.449219 46.617188 31.019531 46.816406 29.4375 C 47.007812 27.925781 50.964844 27.535156 50.964844 27.535156 Z M 50.855469 28.886719"/><path fill="#FFF" d="M 34.871094 35.933594 L 34.871094 35.433594 L 33.050781 33.242188 C 31.226562 38.527344 15.910156 26.949219 17.273438 34.636719 C 17.273438 34.636719 29.167969 36.828125 29.894531 36.828125 C 30.621094 36.828125 34.871094 36.03125 34.871094 35.933594 Z M 34.871094 35.933594"/></svg>
