<svg width="98" height="98" viewBox="0 0 98 98" fill="none" xmlns="http://www.w3.org/2000/svg">
<rect width="98" height="98" rx="30" fill="#3C81F6"/>
<g clip-path="url(#clip0)">
<path d="M54.8335 50.6665C53.0502 50.6665 51.4168 49.6332 50.6668 48.0165L49.0002 44.4332L47.3335 48.0165C46.5835 49.6332 44.9502 50.6665 43.1668 50.6665H32.3168V61.0832C32.3168 61.6665 32.7335 62.1832 33.3168 62.2998L48.7168 65.6332C48.8002 65.6498 48.8835 65.6665 48.9835 65.6665H49.0002H49.0168C49.1002 65.6665 49.1835 65.6498 49.2835 65.6332L64.6835 62.2998C65.2502 62.1832 65.6668 61.6665 65.6668 61.0832V50.6665H54.8335Z" fill="white"/>
<path d="M67.7499 47.3329H54.8299C54.3433 47.3329 53.9016 47.0512 53.6966 46.6112L47.8716 34.1112C47.6699 33.6812 47.7316 33.1746 48.0283 32.8029C48.3249 32.4329 48.8083 32.2579 49.2699 32.3612L64.6816 35.6946C65.1016 35.7846 65.4449 36.0846 65.5916 36.4896L68.9249 45.6562C69.0649 46.0396 69.0082 46.4662 68.7749 46.8012C68.5399 47.1346 68.1583 47.3329 67.7499 47.3329Z" fill="white"/>
<path d="M43.17 47.3326H30.25C29.8417 47.3326 29.46 47.1342 29.2267 46.7992C28.9917 46.4659 28.9367 46.0376 29.0767 45.6542L32.41 36.4876C32.5567 36.0842 32.9 35.7842 33.32 35.6942L48.7317 32.3609C49.195 32.2576 49.6767 32.4309 49.9734 32.8026C50.27 33.1742 50.33 33.6809 50.13 34.1109L44.305 46.6109C44.0984 47.0509 43.6567 47.3326 43.17 47.3326Z" fill="white"/>
</g>
<defs>
<clipPath id="clip0">
<rect width="40" height="40" fill="white" transform="translate(29 29)"/>
</clipPath>
</defs>
</svg>
