<svg width="98" height="98" viewBox="0 0 98 98" fill="none" xmlns="http://www.w3.org/2000/svg">
<rect width="98" height="98" rx="30" fill="#5ED6D9"/>
<g clip-path="url(#clip0)">
<path d="M39.4868 51.7389C39.4868 49.5147 40.2208 47.461 41.4557 45.8008C40.1625 44.6385 38.4584 43.9254 36.5834 43.9254C32.5517 43.9254 29.2831 47.1945 29.2831 51.2258C29.2831 51.2258 31.0007 66.5648 36.5834 66.5648C38.7411 66.5648 40.3195 64.2715 41.4466 61.4604C40.1312 57.1325 39.5994 52.8125 39.4951 51.8828L39.4868 51.7389Z" fill="white"/>
<path d="M36.5835 43.3965C39.0259 43.3965 41.1505 42.0377 42.2449 40.0357C41.1522 38.5517 40.503 36.7228 40.503 34.7426C40.503 33.8442 40.6391 32.9771 40.8865 32.1584C39.7451 31.133 38.2393 30.5025 36.5835 30.5025C33.0231 30.5025 30.1367 33.3894 30.1367 36.9498C30.1367 40.5097 33.0231 43.3965 36.5835 43.3965Z" fill="white"/>
<path d="M62.3498 43.9254C60.4748 43.9254 58.7711 44.6385 57.4775 45.8008C58.7133 47.461 59.4464 49.5147 59.4464 51.7389L59.4381 51.8824C59.3338 52.8129 58.802 57.1321 57.4866 61.4599C58.6137 64.2711 60.1921 66.5644 62.3498 66.5644C67.9325 66.5644 69.6501 51.2253 69.6501 51.2253C69.6501 47.1945 66.3815 43.9254 62.3498 43.9254Z" fill="white"/>
<path d="M56.6887 40.0351C57.7832 42.0371 59.9069 43.3959 62.3502 43.3959C65.9106 43.3959 68.797 40.5091 68.797 36.9491C68.797 33.3888 65.9102 30.5019 62.3502 30.5019C60.694 30.5019 59.1886 31.132 58.0471 32.1578C58.2941 32.977 58.4311 33.8436 58.4311 34.7419C58.4302 36.7222 57.781 38.5511 56.6887 40.0351Z" fill="white"/>
<path d="M49.4664 43.0466C44.6664 43.0466 40.7751 46.9379 40.7751 51.738C40.7751 51.738 42.8205 69.9995 49.4664 69.9995C56.1124 69.9995 58.1574 51.738 58.1574 51.738C58.1574 46.9379 54.2665 43.0466 49.4664 43.0466Z" fill="white"/>
<path d="M49.4665 42.417C53.7054 42.417 57.1417 38.9807 57.1417 34.7419C57.1417 30.503 53.7054 27.0667 49.4665 27.0667C45.2276 27.0667 41.7913 30.503 41.7913 34.7419C41.7913 38.9807 45.2276 42.417 49.4665 42.417Z" fill="white"/>
</g>
<defs>
<clipPath id="clip0">
<rect width="42.9333" height="42.9333" fill="white" transform="translate(28 27.0667)"/>
</clipPath>
</defs>
</svg>
